<svg width="24" height="24" viewBox="0 0 24 24" fill="none" xmlns="http://www.w3.org/2000/svg">
<path fill-rule="evenodd" clip-rule="evenodd" d="M20.2871 5.24297C20.6761 5.24297 21 5.56596 21 5.97696V6.35696C21 6.75795 20.6761 7.09095 20.2871 7.09095H3.71385C3.32386 7.09095 3 6.75795 3 6.35696V5.97696C3 5.56596 3.32386 5.24297 3.71385 5.24297H6.62957C7.22185 5.24297 7.7373 4.82197 7.87054 4.22798L8.02323 3.54598C8.26054 2.61699 9.0415 2 9.93527 2H14.0647C14.9488 2 15.7385 2.61699 15.967 3.49699L16.1304 4.22698C16.2627 4.82197 16.7781 5.24297 17.3714 5.24297H20.2871ZM18.8056 19.1322C19.11 16.2952 19.643 9.5553 19.643 9.4873C19.6624 9.28131 19.5953 9.08631 19.4621 8.92931C19.3191 8.78231 19.1382 8.69531 18.9388 8.69531H5.06831C4.86796 8.69531 4.67734 8.78231 4.54507 8.92931C4.41086 9.08631 4.34473 9.28131 4.35445 9.4873C4.35624 9.4998 4.37536 9.7372 4.40733 10.1341L4.40734 10.1341C4.54937 11.8974 4.94495 16.8083 5.20057 19.1322C5.38147 20.8442 6.50477 21.9202 8.13185 21.9592C9.38741 21.9882 10.6809 21.9982 12.0036 21.9982C13.2494 21.9982 14.5147 21.9882 15.8092 21.9592C17.4927 21.9302 18.615 20.8732 18.8056 19.1322ZM10.3301 16.75C9.91586 16.75 9.58008 17.0858 9.58008 17.5C9.58008 17.9142 9.91586 18.25 10.3301 18.25H13.6601C14.0743 18.25 14.4101 17.9142 14.4101 17.5C14.4101 17.0858 14.0743 16.75 13.6601 16.75H10.3301ZM8.75 13.5C8.75 13.0858 9.08579 12.75 9.5 12.75H14.5C14.9142 12.75 15.25 13.0858 15.25 13.5C15.25 13.9142 14.9142 14.25 14.5 14.25H9.5C9.08579 14.25 8.75 13.9142 8.75 13.5Z" fill="#B8B7C7"/>
</svg>
