<svg width="18" height="26" viewBox="0 0 18 26" fill="none" xmlns="http://www.w3.org/2000/svg">
<g id="Group">
<path id="Path" fill-rule="evenodd" clip-rule="evenodd" d="M9.00373 0C12.1222 0 14.6492 2.54919 14.6492 5.6926C14.6492 8.83675 12.1222 11.3852 9.00373 11.3852C5.88679 11.3852 3.3598 8.83675 3.3598 5.6926C3.3598 2.54919 5.88679 0 9.00373 0Z" fill="white"/>
<path id="Path_2" fill-rule="evenodd" clip-rule="evenodd" d="M9 24.7745C5.88981 24.7745 3.04123 23.6322 0.844078 21.7415C0.308846 21.2811 0 20.606 0 19.8976C0 16.7096 2.55847 14.1582 5.72039 14.1582H12.2886C15.4513 14.1582 18 16.7096 18 19.8976C18 20.6067 17.6927 21.2803 17.1567 21.7407C14.9603 23.6322 12.1109 24.7745 9 24.7745Z" fill="white"/>
</g>
</svg>
